<svg height="512" viewBox="0 0 64 64" width="512" xmlns="http://www.w3.org/2000/svg" xmlns:xlink="http://www.w3.org/1999/xlink"><linearGradient id="linear-gradient" gradientUnits="userSpaceOnUse" x2="64.195" y1="32" y2="32"><stop offset="0" stop-color="#fec183"/><stop offset=".173" stop-color="#fea981"/><stop offset=".538" stop-color="#fe6b7b"/><stop offset="1" stop-color="#ff1572"/></linearGradient><linearGradient id="linear-gradient-2" x2="64.195" xlink:href="#linear-gradient" y1="51.5" y2="51.5"/><linearGradient id="linear-gradient-3" x2="64.195" xlink:href="#linear-gradient" y1="49.5" y2="49.5"/><linearGradient id="linear-gradient-4" x2="64.195" xlink:href="#linear-gradient" y1="54" y2="54"/><g id="Gradient_outline" data-name="Gradient outline"><path d="m48 15v-5a1 1 0 0 0 -.445-.832l-6-4a1.838 1.838 0 0 0 -.555-.168h-18a1.83 1.83 0 0 0 -.555.168l-6 4a1 1 0 0 0 -.445.832v5h-14v39a5.006 5.006 0 0 0 5 5h50a5.006 5.006 0 0 0 5-5v-39zm-6-7.132 4 2.667v4.465h-4zm-18-.868h16v4h-16zm0 6h16v2h-16zm-6-2.465 4-2.667v7.132h-4zm-10 6.465h48v13a3 3 0 0 1 -3 3h-5v-4h2v-6h-14v6h2v4h-12v-4h2v-6h-14v6h2v4h-5a3 3 0 0 1 -3-3zm28 26v-2h14v2zm14 2v2h-2v-2zm-6 4v-4h2v5.5l-3 2.25-3-2.25v-5.5h2v4zm-6-4v2h-2v-2zm8-10v4h-6v-4zm-6-2v-4h6v4zm-2-6v-2h10v2zm-24 16v-2h14v2zm14 2v2h-2v-2zm-6 4v-4h2v5.5l-3 2.25-3-2.25v-5.5h2v4zm-6-4v2h-2v-2zm8-10v4h-6v-4zm-6-2v-4h6v4zm-2-6v-2h10v2zm44 27a3 3 0 0 1 -3 3h-50a3 3 0 0 1 -3-3v-37h2v13a5.006 5.006 0 0 0 5 5h5v4h-4v10h4v2.5l5 3.75 5-3.75v-2.5h4v-10h-4v-4h12v4h-4v10h4v2.5l5 3.75 5-3.75v-2.5h4v-10h-4v-4h5a5.006 5.006 0 0 0 5-5v-13h2z" fill="url(#linear-gradient)"/><path d="m56 53h-4v2h5a1 1 0 0 0 1-1v-6h-2z" fill="url(#linear-gradient-2)"/><path d="m8 44h-2v10a1 1 0 0 0 1 1h5v-2h-4z" fill="url(#linear-gradient-3)"/><path d="m14 53h2v2h-2z" fill="url(#linear-gradient-4)"/></g></svg>