<svg height="512" viewBox="0 0 58 58" width="512" xmlns="http://www.w3.org/2000/svg"><g id="015---Eagle-Shield" fill="none"><path id="Shape" d="m5 44h-4c-.35930486.0000627-.69095652.1928829-.86877613.505101-.17781961.3122182-.17446936.6958342.00877613 1.004899l1.79 3c.17863279.3094011.17863279.6905989 0 1l-1.79 3c-.17306254.3078262-.17093579.6841081.00559526.9899584.17653105.3058504.50128918.4959155.85440474.5000416h14z" fill="#c03a2b"/><path id="Shape" d="m43 54h14c.3593049-.0000627.6909565-.1928829.8687761-.505101.1778196-.3122182.1744694-.6958342-.0087761-1.004899l-1.79-3c-.1786328-.3094011-.1786328-.6905989 0-1l1.79-3c.1730625-.3078262.1709358-.6841081-.0055953-.9899584-.176531-.3058504-.5012891-.4959155-.8544047-.5000416h-4z" fill="#c03a2b"/><path id="Shape" d="m43 48.61c-4.0786882 3.6813279-8.6326002 6.7991096-13.54 9.27-.2857122.1603253-.6342878.1603253-.92 0-4.9083225-2.4693276-9.462435-5.5872466-13.54-9.27l-9-14.61c-1.36-5.21-1-7.6-1-25-.00615217-.3038091.12617016-.59393352.35961063-.78846724.23344047-.19453373.54267015-.27236932.84038937-.21153276 11.23 2.58 19.66-5.26 22.09-7.7.1877666-.18931265.4433625-.29579832.71-.29579832s.5222334.10648567.71.29579832c2.43 2.44 10.86 10.28 22.09 7.7.2977192-.06083656.6069489.01699903.8403894.21153276.2334404.19453372.3657628.48465814.3596106.78846724 0 17.4.33 19.79-1 25z" fill="#4482c3"/><path id="Shape" d="m47.82 34c1.54-5.19 1.18-8.07 1.18-21.53-7.47.53-14.39-2.54-20-7.37-3.94 3.39-10.32 7.43-18.32 7.43h-1.72v13.41c.03566847 2.7298568.4461724 5.4418745 1.22 8.06l10.23 14c2.6811423 2.1264721 5.5572646 3.9947797 8.59 5.58 3.0280168-1.593282 5.9034102-3.4611162 8.59-5.58z" fill="#285680"/><path id="Shape" d="m53 35v13h-48v-13c0-.5522847.44771525-1 1-1h46c.5522847 0 1 .4477153 1 1z" fill="#e64c3c"/><path id="Shape" d="m15 48v6l-10-6z" fill="#802f34"/><path id="Shape" d="m53 48-10 6v-6z" fill="#802f34"/><path id="Shape" d="m37.94 34c-1.36-1.35-3.83-5.62-3.55-11l3-4.61c-.22-1.13-1.43-5-7.45-5-3.1406265.0348247-6.1709882 1.1628123-8.57 3.19-1.3192388 1.0800685-2.3729604 2.4485382-3.08 4-.0713798.1542229-.0595395.3341431.0314356.4776816.0909752.1435386.2486287.231042.4185644.2323184h1.73c-1.6099502 4.0473492-2.4673442 8.3546528-2.53 12.71z" fill="#f5efca"/><path id="Shape" d="m30.76 22.52c1-1.86 3.73-1.49 4.32-2.73.21-.45.09-1 .49-1.4.0974984-.0835703.2215873-.1296604.35-.13 5.7.18 7.31 3.62 5.09 7.5 0 0 .44-2.76-4.85-2.76-1.9139664-.0597735-3.829729-.0230603-5.74.11z" fill="#f3d55b"/><circle id="Oval" cx="30" cy="19" fill="#393f4a" r="1"/><path id="Shape" d="m28 17 4 1" fill="#7f6e5d"/><path id="Shape" d="m32 19c-1.4302974-.2567974-2.8456899-.5906164-4.24-1-.3572656-.0857437-.6416489-.3555731-.7460254-.7078461-.1043765-.3522729-.0128891-.7334708.24-1 .252889-.2665292.6287598-.3778976.9860254-.2921539l4 1c.3572656.0428719.6645207.273086.8060254.603923.1415047.3308371.0957609.7120349-.12 1-.2157609.2879652-.5687598.4389489-.9260254.396077z" fill="#7f6e5d"/><g fill="#ecf0f1"><path id="Shape" d="m29.5 37.32c.84 1.79.84 2 1.22 2l1.82.28c.2229024.030762.4068473.1897783.4695195.4058893.0626722.2161111-.0076586.4488674-.1795195.5941107-1.39 1.42-1.54 1.46-1.47 1.84l.3 1.9c.042622.2073311-.0375167.4207242-.2060789.5487461-.1685622.128022-.3956339.1479533-.5839211.0512539l-1.62-.9c-.1583281-.0890891-.3516719-.0890891-.51 0l-1.63.89c-.1874895.0909998-.4103079.0682124-.5754959-.0588553s-.2443671-.3365861-.2045041-.5411447c.33-2 .43-2.12.16-2.4l-1.31-1.35c-.172382-.1465909-.2417267-.3812706-.1767045-.5980114.0650222-.2167407.252097-.3744945.4767045-.4019886l1.82-.27c.1802362-.0274929.3344296-.1440782.41-.31l.82-1.72c.0923509-.1890835.2878178-.3056216.4980702-.2969514.2102523.0086702.3954605.1409063.4719298.3369514z"/><path id="Shape" d="m15.49 37.32c.84 1.79.84 2 1.21 2l1.82.28c.2195173.0353151.3995267.1930124.4634156.4059753s.0004116.4437063-.1634156.5940247c-1.4 1.42-1.54 1.46-1.48 1.84l.31 1.9c.042622.2073311-.0375167.4207242-.2060789.5487461-.1685622.128022-.3956339.1479533-.5839211.0512539l-1.62-.9c-.1583281-.0890891-.3516719-.0890891-.51 0l-1.63.89c-.1871361.0999221-.4154426.0810147-.5835917-.0483308-.1681491-.1293454-.2449859-.3451636-.1964083-.5516692.33-2 .43-2.12.16-2.4l-1.32-1.35c-.1642166-.1516902-.2266353-.3842561-.1604408-.5977867.0661945-.2135305.2492171-.3700096.4704408-.4022133l1.82-.27c.1788191-.0308059.3316282-.1463444.41-.31l.81-1.72c.0959431-.1876137.2922563-.3022795.5028035-.2936857.2105472.0085937.3968624.1388771.4771965.3336857z"/><path id="Shape" d="m43.5 37.32c.84 1.79.84 2 1.22 2l1.82.28c.2229024.030762.4068473.1897783.4695195.4058893.0626722.2161111-.0076586.4488674-.1795195.5941107-1.39 1.42-1.53 1.46-1.47 1.84l.3 1.9c.042622.2073311-.0375167.4207242-.2060789.5487461-.1685622.128022-.3956339.1479533-.5839211.0512539l-1.62-.9c-.1583281-.0890891-.3516719-.0890891-.51 0l-1.63.89c-.1874895.0909998-.4103079.0682124-.5754959-.0588553s-.2443671-.3365861-.2045041-.5411447c.33-2 .43-2.12.16-2.4l-1.31-1.35c-.1638272-.1503184-.2273045-.3810618-.1634156-.5940247s.2438983-.3706602.4634156-.4059753l1.82-.27c.1802362-.0274929.3344296-.1440782.41-.31l.82-1.72c.0923509-.1890835.2878178-.3056216.4980702-.2969514.2102523.0086702.3954605.1409063.4719298.3369514z"/></g></g></svg>