<?xml version="1.0" encoding="UTF-8"?>
<svg xmlns="http://www.w3.org/2000/svg" xmlns:xlink="http://www.w3.org/1999/xlink" id="Gradient" viewBox="0 0 512 512" width="512" height="512"><defs><linearGradient id="linear-gradient" x1="258.774" y1="488" x2="258.774" y2="24" gradientUnits="userSpaceOnUse"><stop offset="0" stop-color="#12c2e9"/><stop offset="0.5" stop-color="#c471ed"/><stop offset="1" stop-color="#f64f59"/></linearGradient></defs><path d="M488,328H384V152a8,8,0,0,0-8-8H112.612l257.07-57.343a8,8,0,0,0,6.067-9.55L365.3,30.259a8,8,0,0,0-9.549-6.068L27.808,97.343a8,8,0,0,0-6.066,9.55L32,152.881V392a8,8,0,0,0,8,8H200a8,8,0,0,0,8,8,16,16,0,0,1,0,32,8,8,0,0,0-8,8v32a8,8,0,0,0,8,8H432a8,8,0,0,0,8-8V456h48a8,8,0,0,0,8-8V416a8,8,0,0,0-8-8,16,16,0,0,1,0-32,8,8,0,0,0,8-8V336A8,8,0,0,0,488,328ZM368,192H324.944l16-32H368ZM48,160H83.056l-16,32H48Zm52.944,0h30.112l-16,32H84.944Zm48,0h30.112l-16,32H132.944Zm48,0h30.112l-16,32H180.944Zm48,0h30.112l-16,32H228.944Zm48,0h30.112l-16,32H276.944ZM267.676,93.017l-29.389,6.556L215.7,71.824l29.389-6.556Zm-5.124-31.643,29.389-6.556,22.583,27.749-29.388,6.556Zm-41.725,42.094-29.389,6.555L168.855,82.274l29.389-6.555Zm-46.848,10.45-29.389,6.555L122.007,92.724,151.4,86.169Zm-46.849,10.45-29.389,6.555L75.158,103.174l29.389-6.555ZM358.391,72.782l-26.407,5.89L309.4,50.924l42.023-9.374ZM57.7,107.069l22.583,27.749L46.066,142.45,39.1,111.218ZM200,368v16H48V208H368V328H264a8,8,0,0,0-8,8v24H208A8,8,0,0,0,200,368Zm16,86.987a32,32,0,0,0,0-61.974V376H328v96H216ZM424,472H384v-8a8,8,0,0,0-16,0v8H344V376h24v8a8,8,0,0,0,16,0v-8h40v17.013a32,32,0,0,0,0,61.974Zm56-110.987a32,32,0,0,0,0,61.974V440H432a16,16,0,0,1,0-32,8,8,0,0,0,8-8V368a8,8,0,0,0-8-8H272V344H480ZM384,416v16a8,8,0,0,1-16,0V416a8,8,0,0,1,16,0ZM208,344a7.977,7.977,0,0,1-5.516-2.2l-54.63-52a37.448,37.448,0,0,1,0-54.668,41.167,41.167,0,0,1,56.293,0L208,238.793l3.854-3.669a41.168,41.168,0,0,1,56.291,0l0,0a37.449,37.449,0,0,1,0,54.665l-54.633,52A7.977,7.977,0,0,1,208,344ZM176,240a24.659,24.659,0,0,0-17.115,6.714,21.451,21.451,0,0,0,0,31.494L208,324.955l49.114-46.75a21.451,21.451,0,0,0,0-31.492,25.17,25.17,0,0,0-34.228,0l-9.37,8.919a8,8,0,0,1-11.031,0l-9.37-8.919A24.659,24.659,0,0,0,176,240Z" style="fill:url(#linear-gradient)"/></svg>
