<svg id="Capa_1" enable-background="new 0 0 512.001 512.001" height="512" viewBox="0 0 512.001 512.001" width="512" xmlns="http://www.w3.org/2000/svg" xmlns:xlink="http://www.w3.org/1999/xlink"><linearGradient id="SVGID_1_" gradientUnits="userSpaceOnUse" x1="256" x2="256" y1="512.001" y2="0"><stop offset="0" stop-color="#fd5900"/><stop offset="1" stop-color="#ffde00"/></linearGradient><g><g><g><path d="m375 390c8.284 0 15-6.716 15-15s-6.716-15-15-15-15 6.716-15 15 6.716 15 15 15zm60 60c8.284 0 15-6.716 15-15v-60c0-8.284-6.716-15-15-15s-15 6.716-15 15v60c0 8.284 6.716 15 15 15zm0-120c8.284 0 15-6.716 15-15s-6.716-15-15-15-15 6.716-15 15 6.716 15 15 15zm-60 0c8.284 0 15-6.716 15-15s-6.716-15-15-15-15 6.716-15 15 6.716 15 15 15zm0 120c8.284 0 15-6.716 15-15s-6.716-15-15-15-15 6.716-15 15 6.716 15 15 15zm122-300h-115.445l125.981-124.323c4.331-4.274 5.651-10.742 3.341-16.371-2.31-5.63-7.792-9.306-13.877-9.306h-482c-8.284 0-15 6.716-15 15v482c0 8.309 6.751 15.001 14.997 15.001 3.924 0 7.78-1.541 10.653-4.438l214.35-216.136v205.573c0 8.284 6.716 15 15 15h242c8.284 0 15-6.716 15-15v-332c0-8.284-6.716-15-15-15zm-243.124.057 34.45-34.45c4.29-4.29 5.573-10.742 3.252-16.347-2.322-5.605-7.791-9.26-13.858-9.26h-172.72c-8.284 0-15 6.716-15 15v172.72c0 6.067 3.654 11.537 9.26 13.858 5.605 2.322 12.057 1.038 16.347-3.252l124.45-124.45c-.028.372-.057.745-.057 1.124v83.823l-210 211.75v-430.573h60v15c0 8.284 6.716 15 15 15s15-6.716 15-15v-15h30v15c0 8.284 6.716 15 15 15s15-6.716 15-15v-15h30v15c0 8.284 6.716 15 15 15s15-6.716 15-15v-15h30v15c0 8.284 6.716 15 15 15s15-6.716 15-15v-15h30v15c0 8.284 6.716 15 15 15s15-6.716 15-15v-15h100.445l-121.6 120s-84.597.029-84.969.057zm-12.369-30.057-121.507 121.506v-121.506zm240.493 362h-212v-212h212zm0-242h-212v-60h212zm-167 210c8.284 0 15-6.716 15-15s-6.716-15-15-15-15 6.716-15 15 6.716 15 15 15zm0-120c8.284 0 15-6.716 15-15s-6.716-15-15-15-15 6.716-15 15 6.716 15 15 15zm0 60c8.284 0 15-6.716 15-15s-6.716-15-15-15-15 6.716-15 15 6.716 15 15 15z" fill="url(#SVGID_1_)"/></g></g></g></svg>